<svg width="430" height="62" viewBox="0 0 430 62" fill="none" xmlns="http://www.w3.org/2000/svg">
<g clip-path="url(#clip0_1_2)">
<path d="M81.61 7.62H91.67V40.59H114.24V48.77H81.61V7.62Z" fill="#00183A"/>
<path d="M152.79 39.56C151.48 43.13 149.35 45.76 146.41 47.43C143.47 49.1 139.82 49.94 135.46 49.94C129.48 49.94 124.92 48.53 121.79 45.7C118.66 42.88 117.09 38.75 117.09 33.34C117.09 27.93 118.65 23.8 121.79 20.98C124.92 18.16 129.48 16.74 135.46 16.74C141.44 16.74 145.89 18.35 148.9 21.58C151.84 24.77 153.31 29.29 153.31 35.13V36.05H126.54V36.17C126.54 37.25 126.88 38.37 127.55 39.54C128.22 40.71 129.24 41.68 130.58 42.45C131.93 43.22 133.55 43.6 135.46 43.6C139.23 43.6 141.75 42.26 143.03 39.56H152.78H152.79ZM143.86 30.05V29.93C143.86 29.2 143.57 28.3 143 27.22C142.43 26.14 141.49 25.18 140.17 24.34C138.86 23.5 137.21 23.07 135.24 23.07C133.27 23.07 131.52 23.51 130.21 24.4C128.9 25.28 127.95 26.3 127.38 27.45C126.81 28.6 126.52 29.43 126.52 29.93V30.05H143.85H143.86Z" fill="#00183A"/>
<path d="M158.08 27.34C158.39 24.73 159.2 22.64 160.52 21.09C161.83 19.53 163.57 18.42 165.73 17.75C167.89 17.08 170.82 16.74 174.52 16.74C179.78 16.74 183.74 17.54 186.4 19.13C189.06 20.73 190.39 23.42 190.39 27.23V42.56C190.39 43.91 190.48 45.09 190.68 46.1C190.87 47.12 191.12 48.01 191.43 48.78H182.3C181.92 47.67 181.71 46.57 181.68 45.49C180.4 46.91 178.61 48.01 176.31 48.78C174.01 49.55 171.46 49.93 168.66 49.93C164.58 49.93 161.5 49.07 159.43 47.36C157.36 45.65 156.32 43.16 156.32 39.9C156.32 37.79 156.76 36.07 157.64 34.74C158.52 33.41 159.78 32.41 161.4 31.71C163.03 31.02 165.17 30.58 167.83 30.38L177.53 29.63C179.05 29.51 180.05 29.25 180.54 28.82C181.02 28.4 181.27 27.59 181.27 26.4C181.27 25.13 180.73 24.2 179.66 23.6C178.59 23 176.74 22.71 174.11 22.71C172.24 22.71 170.94 22.84 170.19 23.08C169.45 23.33 168.8 23.78 168.24 24.43C167.69 25.08 167.24 26.04 166.89 27.31H158.07L158.08 27.34ZM181.58 33.73C180.71 34.19 179.82 34.51 178.91 34.68C177.99 34.85 177.09 34.98 176.19 35.05L170.9 35.57C169.21 35.72 167.98 36.1 167.22 36.69C166.46 37.29 166.08 38.26 166.08 39.6C166.08 40.94 166.6 42 167.64 42.77C168.68 43.54 170.08 43.92 171.84 43.92C174.54 43.92 176.84 43.22 178.74 41.82C180.64 40.42 181.59 38.56 181.59 36.26V33.72L181.58 33.73Z" fill="#00183A"/>
<path d="M221.74 44.92H221.64C220.15 46.92 218.47 48.25 216.58 48.93C214.69 49.6 212.71 49.94 210.64 49.94C205.94 49.9 202.18 48.46 199.38 45.62C196.58 42.78 195.16 38.8 195.13 33.69C195.13 30.46 195.8 27.58 197.15 25.04C198.5 22.5 200.37 20.54 202.75 19.16C205.14 17.78 207.76 17.08 210.64 17.08C213.2 17.08 215.39 17.5 217.23 18.35C219.06 19.2 220.43 20.31 221.33 21.69H221.43V6.93H230.56V48.78H221.74V44.92ZM221.74 33.5C221.74 30.81 220.93 28.65 219.3 27.02C217.67 25.39 215.63 24.57 213.18 24.57C210.73 24.57 208.63 25.39 207.01 27.02C205.38 28.65 204.57 30.82 204.57 33.5C204.57 36.18 205.37 38.35 206.98 39.99C208.59 41.62 210.65 42.44 213.18 42.44C215.71 42.44 217.72 41.62 219.33 39.99C220.94 38.36 221.74 36.2 221.74 33.5Z" fill="#00183A"/>
<path d="M245.24 39.21C245.41 40.56 246 41.62 247 42.41C248 43.2 249.68 43.59 252.03 43.59C254.11 43.59 255.72 43.31 256.88 42.75C258.04 42.19 258.62 41.36 258.62 40.24C258.62 39.24 258.26 38.56 257.56 38.19C256.85 37.83 255.48 37.47 253.44 37.12L245.14 35.85C241.68 35.31 239.29 34.35 237.98 32.97C236.67 31.59 236.01 29.63 236.01 27.09C236.01 23.71 237.27 21.13 239.8 19.37C242.32 17.6 246.13 16.72 251.21 16.72C254.98 16.72 258.03 17.12 260.37 17.93C262.71 18.74 264.42 19.85 265.53 21.27C266.64 22.69 267.35 24.65 267.66 27.15H257.6C257.36 25.81 256.68 24.79 255.58 24.09C254.47 23.4 253.09 23.05 251.43 23.05C249.28 23.05 247.75 23.33 246.84 23.89C245.92 24.45 245.47 25.26 245.47 26.34C245.47 27.3 245.85 27.97 246.61 28.36C247.37 28.74 248.53 29.03 250.09 29.23L256.42 29.98C260.74 30.48 263.87 31.47 265.81 32.95C267.75 34.43 268.72 36.61 268.72 39.49C268.72 42.03 268.03 44.07 266.64 45.63C265.26 47.19 263.32 48.29 260.83 48.94C258.34 49.59 255.21 49.92 251.44 49.92C246.18 49.92 242.22 49.06 239.56 47.33C236.9 45.6 235.44 42.89 235.2 39.2H245.26L245.24 39.21Z" fill="#00183A"/>
<path d="M273.36 13.62V7.28H278.55V13.62H273.36ZM273.36 48.78V18.58H278.55V48.78H273.36Z" fill="#0062FF"/>
<path d="M283.68 33.68C283.71 28.88 285.12 25 287.91 22.04C290.69 19.08 294.54 17.58 299.45 17.54C304.4 17.58 308.25 19.08 311.02 22.04C313.79 25 315.19 28.88 315.22 33.68C315.19 38.48 313.78 42.37 311.02 45.32C308.25 48.28 304.4 49.78 299.45 49.82C294.47 49.78 290.6 48.27 287.85 45.3C285.1 42.32 283.71 38.45 283.67 33.69L283.68 33.68ZM289.18 33.68C289.21 37.1 290.14 39.84 291.96 41.89C293.78 43.95 296.27 44.97 299.46 44.97C302.65 44.97 305.18 43.94 306.98 41.89C308.78 39.83 309.69 37.1 309.73 33.68C309.7 30.18 308.77 27.43 306.95 25.41C305.13 23.39 302.63 22.38 299.45 22.38C296.27 22.38 293.77 23.41 291.95 25.46C290.13 27.52 289.21 30.25 289.17 33.67L289.18 33.68Z" fill="#0062FF"/>
<path d="M320.36 48.78V7.28H325.55V48.78H320.36Z" fill="#0062FF"/>
<path d="M330.68 33.68C330.71 28.88 332.12 25 334.91 22.04C337.69 19.08 341.54 17.58 346.45 17.54C351.4 17.58 355.25 19.08 358.02 22.04C360.79 25 362.19 28.88 362.22 33.68C362.19 38.48 360.78 42.37 358.02 45.32C355.25 48.28 351.4 49.78 346.45 49.82C341.47 49.78 337.6 48.27 334.85 45.3C332.1 42.32 330.71 38.45 330.67 33.69L330.68 33.68ZM336.18 33.68C336.21 37.1 337.14 39.84 338.96 41.89C340.78 43.95 343.27 44.97 346.46 44.97C349.65 44.97 352.18 43.94 353.98 41.89C355.78 39.83 356.69 37.1 356.73 33.68C356.7 30.18 355.77 27.43 353.95 25.41C352.13 23.39 349.63 22.38 346.45 22.38C343.27 22.38 340.77 23.41 338.95 25.46C337.13 27.52 336.21 30.25 336.17 33.67L336.18 33.68Z" fill="#0062FF"/>
<path d="M391.7 43.48H391.6C390.42 45.36 388.97 46.77 387.24 47.69C385.51 48.61 383.45 49.07 381.07 49.07C378.13 49.07 375.51 48.42 373.21 47.11C370.91 45.8 369.16 44 367.97 41.69C366.78 39.38 366.18 36.66 366.18 33.5C366.18 30.34 366.78 27.6 367.97 25.26C369.16 22.92 370.92 21.1 373.24 19.81C375.56 18.52 378.15 17.88 381.02 17.88C383.3 17.88 385.39 18.31 387.27 19.18C389.15 20.04 390.6 21.32 391.6 23.01H391.7V18.57H396.89V46.24C396.89 51.7 395.64 55.6 393.15 57.94C390.66 60.28 386.63 61.46 381.06 61.46C378.29 61.46 375.99 61.18 374.16 60.62C372.33 60.06 370.81 59.08 369.62 57.68C368.43 56.28 367.67 54.4 367.36 52.06H372.55C373.03 53.9 373.97 55.18 375.35 55.89C376.73 56.6 378.81 56.96 381.58 56.96C384.83 56.96 387.33 56.16 389.08 54.57C390.83 52.97 391.7 50.74 391.7 47.85V43.47V43.48ZM371.67 33.56C371.67 36.71 372.55 39.27 374.32 41.23C376.09 43.19 378.54 44.19 381.69 44.23C384.8 44.19 387.24 43.2 389 41.26C390.76 39.32 391.66 36.75 391.7 33.56C391.67 30.33 390.77 27.73 389 25.75C387.24 23.77 384.8 22.76 381.69 22.72C378.61 22.72 376.17 23.73 374.37 25.75C372.57 27.77 371.67 30.37 371.67 33.56Z" fill="#0062FF"/>
<path d="M412.03 49.24L399.47 18.57H405.44L414.78 42.43L423.96 18.57H429.77L415.55 53.96C414.75 55.92 413.97 57.44 413.19 58.51C412.41 59.59 411.51 60.34 410.49 60.79C409.47 61.23 408.01 61.45 406.11 61.45C404.83 61.45 403.52 61.37 402.17 61.22V56.38C403.55 56.53 404.56 56.61 405.18 56.61C406.77 56.61 407.9 56.33 408.58 55.77C409.26 55.21 410.01 53.95 410.84 51.99L412.03 49.22V49.24Z" fill="#0062FF"/>
<path d="M0 15.39V51.73C0 54.56 2.3 56.86 5.13 56.86H41.47L54.47 43.86H13V2.39L0 15.39Z" fill="#0062FF"/>
<path d="M56.86 25.05V5.13C56.86 2.3 54.56 0 51.73 0H31.8L18.8 13H43.86V38.05L56.86 25.05Z" fill="#C0DAFF"/>
</g>
<defs>
<clipPath id="clip0_1_2">
<rect width="429.78" height="61.46" fill="white"/>
</clipPath>
</defs>
</svg>
