<svg width="185" height="76" viewBox="0 0 185 76" fill="none" xmlns="http://www.w3.org/2000/svg">
<g clip-path="url(#clip0_1_63)">
<path d="M0 46.77H5.34V64.27H17.32V68.61H0V46.77Z" fill="white"/>
<path d="M37.77 63.71C37.07 65.61 35.94 67 34.38 67.89C32.82 68.78 30.88 69.22 28.57 69.22C25.39 69.22 22.98 68.47 21.32 66.97C19.66 65.47 18.83 63.28 18.83 60.41C18.83 57.54 19.66 55.35 21.32 53.85C22.98 52.35 25.4 51.6 28.57 51.6C31.74 51.6 34.1 52.46 35.7 54.17C37.26 55.86 38.04 58.26 38.04 61.36V61.85H23.83V61.91C23.83 62.48 24.01 63.08 24.37 63.7C24.73 64.32 25.26 64.84 25.98 65.24C26.7 65.65 27.56 65.85 28.57 65.85C30.57 65.85 31.91 65.14 32.59 63.71H37.77ZM33.04 58.67V58.61C33.04 58.22 32.89 57.74 32.59 57.17C32.29 56.6 31.79 56.09 31.09 55.64C30.39 55.19 29.52 54.97 28.47 54.97C27.42 54.97 26.5 55.2 25.8 55.67C25.1 56.14 24.6 56.68 24.3 57.29C24 57.9 23.85 58.34 23.85 58.61V58.67H33.05H33.04Z" fill="white"/>
<path d="M40.58 57.23C40.75 55.84 41.18 54.74 41.87 53.91C42.57 53.08 43.49 52.49 44.64 52.14C45.79 51.78 47.34 51.6 49.31 51.6C52.1 51.6 54.2 52.02 55.61 52.87C57.02 53.72 57.73 55.15 57.73 57.17V65.31C57.73 66.02 57.78 66.65 57.88 67.19C57.98 67.73 58.11 68.2 58.28 68.61H53.43C53.23 68.02 53.12 67.44 53.1 66.87C52.42 67.62 51.47 68.21 50.25 68.61C49.03 69.02 47.68 69.22 46.19 69.22C44.02 69.22 42.39 68.77 41.29 67.86C40.19 66.95 39.64 65.63 39.64 63.9C39.64 62.78 39.87 61.87 40.34 61.16C40.81 60.46 41.47 59.92 42.34 59.55C43.2 59.18 44.34 58.95 45.75 58.85L50.9 58.45C51.71 58.39 52.24 58.25 52.5 58.02C52.76 57.8 52.89 57.37 52.89 56.74C52.89 56.07 52.61 55.57 52.04 55.26C51.47 54.94 50.49 54.79 49.09 54.79C48.1 54.79 47.41 54.86 47.01 54.99C46.62 55.12 46.27 55.36 45.98 55.71C45.69 56.06 45.45 56.57 45.26 57.24H40.58V57.23ZM53.05 60.62C52.59 60.86 52.12 61.03 51.63 61.12C51.14 61.21 50.66 61.28 50.18 61.32L47.37 61.6C46.47 61.68 45.82 61.88 45.42 62.2C45.02 62.52 44.81 63.03 44.81 63.74C44.81 64.45 45.09 65.01 45.64 65.42C46.19 65.83 46.93 66.03 47.87 66.03C49.3 66.03 50.52 65.66 51.53 64.91C52.54 64.17 53.04 63.18 53.04 61.96V60.61L53.05 60.62Z" fill="white"/>
<path d="M74.36 66.56H74.3C73.51 67.62 72.62 68.33 71.62 68.69C70.62 69.05 69.57 69.22 68.47 69.22C65.97 69.2 63.98 68.44 62.5 66.93C61.01 65.42 60.26 63.31 60.24 60.6C60.24 58.89 60.6 57.36 61.31 56.01C62.02 54.66 63.02 53.62 64.28 52.89C65.55 52.16 66.94 51.79 68.46 51.79C69.82 51.79 70.98 52.01 71.96 52.46C72.93 52.91 73.66 53.5 74.14 54.23H74.2V46.4H79.05V68.61H74.37V66.56H74.36ZM74.36 60.5C74.36 59.07 73.93 57.93 73.07 57.06C72.21 56.19 71.12 55.76 69.82 55.76C68.52 55.76 67.41 56.19 66.54 57.06C65.68 57.93 65.25 59.07 65.25 60.5C65.25 61.93 65.68 63.07 66.53 63.94C67.38 64.81 68.48 65.24 69.82 65.24C71.16 65.24 72.23 64.81 73.08 63.94C73.93 63.07 74.36 61.93 74.36 60.5Z" fill="white"/>
<path d="M86.83 63.53C86.92 64.24 87.23 64.81 87.77 65.23C88.3 65.65 89.19 65.86 90.44 65.86C91.54 65.86 92.4 65.71 93.01 65.42C93.62 65.12 93.93 64.68 93.93 64.09C93.93 63.56 93.74 63.2 93.37 63C92.99 62.81 92.26 62.62 91.18 62.43L86.77 61.76C84.93 61.47 83.67 60.96 82.97 60.23C82.27 59.5 81.92 58.46 81.92 57.11C81.92 55.32 82.59 53.95 83.93 53.01C85.27 52.07 87.29 51.6 89.99 51.6C91.99 51.6 93.61 51.81 94.85 52.24C96.09 52.67 97 53.26 97.59 54.01C98.18 54.76 98.55 55.8 98.72 57.13H93.38C93.25 56.42 92.89 55.88 92.31 55.51C91.72 55.14 90.99 54.96 90.11 54.96C88.97 54.96 88.16 55.11 87.67 55.4C87.18 55.7 86.94 56.13 86.94 56.7C86.94 57.21 87.14 57.57 87.55 57.77C87.95 57.97 88.57 58.13 89.39 58.23L92.75 58.63C95.04 58.9 96.7 59.42 97.73 60.21C98.76 61 99.27 62.15 99.27 63.68C99.27 65.03 98.9 66.11 98.17 66.94C97.44 67.77 96.41 68.35 95.09 68.7C93.77 69.05 92.11 69.22 90.11 69.22C87.32 69.22 85.22 68.76 83.81 67.84C82.4 66.92 81.63 65.48 81.5 63.53H86.84H86.83Z" fill="white"/>
<path d="M101.75 49.95V46.59H104.5V49.95H101.75ZM101.75 68.61V52.58H104.5V68.61H101.75Z" fill="#C0DAFF"/>
<path d="M107.23 60.59C107.25 58.04 108 55.98 109.47 54.41C110.95 52.84 112.99 52.04 115.6 52.02C118.22 52.04 120.27 52.84 121.74 54.41C123.21 55.98 123.95 58.04 123.97 60.59C123.95 63.14 123.21 65.2 121.74 66.77C120.27 68.34 118.23 69.14 115.6 69.16C112.96 69.14 110.91 68.34 109.45 66.76C107.99 65.18 107.25 63.13 107.23 60.6V60.59ZM110.15 60.59C110.17 62.41 110.66 63.86 111.62 64.95C112.58 66.04 113.91 66.59 115.6 66.59C117.29 66.59 118.64 66.04 119.59 64.95C120.54 63.86 121.03 62.41 121.05 60.59C121.03 58.73 120.54 57.27 119.58 56.2C118.62 55.13 117.29 54.59 115.6 54.59C113.91 54.59 112.59 55.14 111.62 56.23C110.66 57.32 110.17 58.77 110.15 60.59Z" fill="#C0DAFF"/>
<path d="M126.7 68.61V46.59H129.45V68.61H126.7Z" fill="#C0DAFF"/>
<path d="M132.18 60.59C132.2 58.04 132.95 55.98 134.42 54.41C135.9 52.84 137.94 52.04 140.55 52.02C143.17 52.04 145.22 52.84 146.69 54.41C148.16 55.98 148.9 58.04 148.92 60.59C148.9 63.14 148.16 65.2 146.69 66.77C145.22 68.34 143.18 69.14 140.55 69.16C137.91 69.14 135.86 68.34 134.4 66.76C132.94 65.18 132.2 63.13 132.18 60.6V60.59ZM135.09 60.59C135.11 62.41 135.6 63.86 136.56 64.95C137.52 66.04 138.85 66.59 140.54 66.59C142.23 66.59 143.58 66.04 144.53 64.95C145.48 63.86 145.97 62.41 145.99 60.59C145.97 58.73 145.48 57.27 144.52 56.2C143.56 55.13 142.23 54.59 140.54 54.59C138.85 54.59 137.53 55.14 136.56 56.23C135.6 57.32 135.11 58.77 135.09 60.59Z" fill="#C0DAFF"/>
<path d="M164.55 65.79H164.49C163.87 66.79 163.09 67.53 162.18 68.02C161.26 68.51 160.17 68.75 158.9 68.75C157.34 68.75 155.95 68.4 154.73 67.71C153.51 67.02 152.58 66.06 151.95 64.83C151.32 63.61 151 62.16 151 60.49C151 58.82 151.32 57.36 151.95 56.12C152.58 54.88 153.51 53.91 154.74 53.23C155.97 52.55 157.35 52.21 158.87 52.21C160.08 52.21 161.19 52.44 162.19 52.9C163.19 53.36 163.96 54.04 164.49 54.93H164.55V52.57H167.3V67.25C167.3 70.15 166.64 72.22 165.32 73.46C164 74.7 161.86 75.33 158.91 75.33C157.44 75.33 156.22 75.18 155.25 74.89C154.28 74.59 153.47 74.07 152.84 73.33C152.21 72.59 151.81 71.59 151.64 70.35H154.39C154.65 71.33 155.14 72.01 155.88 72.38C156.61 72.76 157.72 72.95 159.18 72.95C160.91 72.95 162.23 72.53 163.16 71.68C164.09 70.83 164.55 69.65 164.55 68.12V65.8V65.79ZM153.92 60.53C153.92 62.2 154.39 63.56 155.32 64.6C156.25 65.64 157.56 66.17 159.23 66.19C160.88 66.17 162.18 65.64 163.11 64.61C164.05 63.58 164.52 62.22 164.54 60.53C164.52 58.82 164.04 57.44 163.11 56.39C162.17 55.34 160.88 54.8 159.23 54.78C157.6 54.78 156.3 55.32 155.35 56.39C154.4 57.46 153.92 58.84 153.92 60.53Z" fill="#C0DAFF"/>
<path d="M175.34 68.85L168.68 52.58H171.85L176.81 65.24L181.68 52.58H184.76L177.22 71.36C176.8 72.4 176.38 73.21 175.97 73.78C175.56 74.35 175.08 74.75 174.54 74.99C174 75.22 173.22 75.34 172.21 75.34C171.53 75.34 170.83 75.3 170.12 75.22V72.65C170.85 72.73 171.39 72.77 171.72 72.77C172.56 72.77 173.17 72.62 173.52 72.33C173.87 72.04 174.28 71.37 174.72 70.33L175.35 68.86L175.34 68.85Z" fill="#C0DAFF"/>
<path d="M77.29 8.17V27.46C77.29 28.96 78.51 30.18 80.01 30.18H99.29L106.19 23.28H84.19V1.27L77.29 8.17Z" fill="#0062FF"/>
<path d="M107.47 13.29V2.72C107.47 1.22 106.25 0 104.75 0H94.17L87.27 6.9H100.57V20.19L107.47 13.29Z" fill="#C0DAFF"/>
</g>
<defs>
<clipPath id="clip0_1_63">
<rect width="184.76" height="75.34" fill="white"/>
</clipPath>
</defs>
</svg>
