<svg width="77" height="77" viewBox="0 0 77 77" fill="none" xmlns="http://www.w3.org/2000/svg">
<g clip-path="url(#clip0_1_51)">
<path d="M53.5 0H23.06C10.3243 0 0 10.3243 0 23.06V53.5C0 66.2357 10.3243 76.56 23.06 76.56H53.5C66.2357 76.56 76.56 66.2357 76.56 53.5V23.06C76.56 10.3243 66.2357 0 53.5 0Z" fill="#0062FF"/>
<path d="M21.04 29.27V52.28C21.04 54.07 22.5 55.53 24.29 55.53H47.3L55.53 47.3H29.28V21.05L21.05 29.28L21.04 29.27Z" fill="white"/>
<path d="M57.0401 35.38V22.77C57.0401 20.98 55.5801 19.52 53.7901 19.52H41.1701L32.9401 27.75H48.8001V43.61L57.0301 35.38H57.0401Z" fill="#C0DAFF"/>
</g>
<defs>
<clipPath id="clip0_1_51">
<rect width="76.56" height="76.56" fill="white"/>
</clipPath>
</defs>
</svg>
